<svg width="12" height="12" viewBox="0 0 12 12" fill="none" xmlns="http://www.w3.org/2000/svg">
<path d="M7.49085 11.7427C6.33746 11.7427 5.1818 11.7427 4.02841 11.7427C3.95857 11.7359 3.88874 11.7269 3.81665 11.7247C3.35934 11.7112 2.90429 11.6955 2.456 11.5875C1.50309 11.3581 0.795736 10.8184 0.374476 9.92793C0.113159 9.37473 0.0365658 8.78106 0.0298076 8.18064C0.0162912 6.94382 0.00502752 5.70475 0.0117857 4.46568C0.0140384 3.87201 0.0185439 3.27609 0.162719 2.69366C0.415025 1.67947 1.00749 0.950869 1.98518 0.555087C2.51006 0.341454 3.06424 0.280738 3.62517 0.27624C4.79433 0.262748 5.9635 0.253752 7.13267 0.25825C7.74541 0.260499 8.36266 0.256001 8.96865 0.388678C10.0837 0.631545 10.8654 1.27019 11.2597 2.3541C11.4489 2.87356 11.494 3.41776 11.494 3.96646C11.4985 5.29098 11.503 6.6155 11.4917 7.94002C11.4895 8.31557 11.4579 8.69561 11.4016 9.06665C11.2822 9.82673 10.9398 10.4766 10.3383 10.9714C9.75034 11.4548 9.0565 11.6482 8.3131 11.7C8.03602 11.7157 7.76344 11.7269 7.49085 11.7427ZM5.76076 10.7262C5.76076 10.7195 5.76076 10.715 5.76076 10.7082C6.06488 10.7082 6.36899 10.7172 6.67086 10.706C7.32641 10.6835 7.9842 10.6903 8.63299 10.6093C9.51831 10.4969 10.1153 9.9864 10.3315 9.10713C10.4172 8.75407 10.4464 8.38303 10.4532 8.01873C10.4735 6.95282 10.4802 5.8869 10.4735 4.82099C10.469 4.26554 10.4509 3.7056 10.3856 3.15466C10.2752 2.23041 9.69177 1.60301 8.78392 1.42311C8.38744 1.3444 7.97294 1.31967 7.56745 1.31292C6.48839 1.29718 5.40933 1.29493 4.33027 1.30842C3.83017 1.31517 3.32555 1.33316 2.82995 1.40512C1.95139 1.5333 1.35441 2.10224 1.17645 2.96801C1.09986 3.3413 1.07282 3.73034 1.06606 4.11488C1.04579 5.04137 1.03903 5.97011 1.05029 6.8966C1.05705 7.53974 1.07282 8.18289 1.1359 8.82154C1.20123 9.47818 1.51436 10.0134 2.10457 10.3529C2.46501 10.5598 2.866 10.6475 3.27599 10.661C4.105 10.6925 4.93175 10.706 5.76076 10.7262Z" fill="white"/>
<path d="M2.80078 5.99697C2.80078 4.36887 4.13215 3.0421 5.76312 3.0466C7.39635 3.05109 8.7097 4.35987 8.71645 5.99248C8.72321 7.61833 7.3941 8.9496 5.76312 8.9496C4.12989 8.9496 2.80078 7.62508 2.80078 5.99697ZM5.75862 7.90842C6.81965 7.90842 7.67344 7.05839 7.67569 5.99922C7.67794 4.94005 6.82641 4.08777 5.76538 4.08328C4.69983 4.08103 3.84154 4.93556 3.8438 5.99922C3.8438 7.05839 4.69758 7.90842 5.75862 7.90842Z" fill="white"/>
<path d="M8.84934 2.24155C9.23456 2.2483 9.53192 2.56088 9.52066 2.94991C9.51165 3.3277 9.20077 3.62229 8.81781 3.61555C8.43709 3.6088 8.13523 3.29172 8.14424 2.90494C8.15325 2.53164 8.46863 2.23481 8.84934 2.24155Z" fill="white"/>
</svg>
