<svg width="23" height="18" viewBox="0 0 23 18" fill="none" xmlns="http://www.w3.org/2000/svg">
<path d="M22.0781 10.8599C21.948 10.9952 21.8236 11.1417 21.6935 11.2714C19.5728 13.3852 17.4578 15.4991 15.3371 17.6073C14.9695 17.9737 14.8168 17.9737 14.4435 17.6017C11.1352 14.3041 7.82693 11.0064 4.51862 7.70881C4.17931 7.3706 4.17931 7.20149 4.51297 6.86327C6.68458 4.69868 8.86184 2.52845 11.0334 0.36386C11.3614 0.0369165 11.5368 0.0369165 11.8704 0.36386C13.0806 1.57017 14.2909 2.77648 15.5011 3.97715C15.6425 4.11807 15.7556 4.26463 15.6877 4.47884C15.5972 4.76069 15.2749 4.87343 15.0373 4.69868C14.9751 4.65358 14.9242 4.59721 14.8677 4.54084C13.9685 3.65021 13.075 2.75957 12.1815 1.86329C12.1249 1.80692 12.0853 1.73928 12.0401 1.68291C12.0231 1.68854 12.0061 1.69982 11.9892 1.70546C11.9835 1.75619 11.9666 1.80692 11.9666 1.85202C11.9666 4.24772 11.9609 6.64343 11.9666 9.03914C11.9666 9.74376 12.4359 10.1947 13.1485 10.1947C15.535 10.2003 17.9272 10.1947 20.3137 10.1947C20.3646 10.1947 20.4211 10.1891 20.5059 10.1778C20.4324 10.0989 20.3872 10.0425 20.3363 9.99178C19.4032 9.06168 18.4701 8.12595 17.5313 7.19585C17.4804 7.14512 17.4295 7.10002 17.3843 7.04365C17.2429 6.86891 17.2598 6.64343 17.4069 6.48559C17.5539 6.3334 17.7914 6.31649 17.9667 6.45177C18.0233 6.49687 18.0685 6.5476 18.1194 6.59833C19.3579 7.83283 20.5964 9.06732 21.8349 10.3075C21.9254 10.3976 21.9933 10.5047 22.0668 10.6062C22.0781 10.6908 22.0781 10.7753 22.0781 10.8599ZM5.80236 7.70881C8.68652 10.5837 11.5763 13.4641 14.4492 16.3277C14.4492 14.5972 14.4492 12.8272 14.4492 11.0346C13.9289 11.0346 13.4256 11.0572 12.9279 11.029C11.9722 10.9782 11.1861 10.1947 11.1296 9.24207C11.1013 8.80802 11.1183 8.36834 11.1126 7.93429C11.1126 7.86101 11.107 7.78773 11.1013 7.70881C9.3086 7.70881 7.54417 7.70881 5.80236 7.70881ZM11.1013 1.57017C9.33687 3.3289 7.56679 5.08763 5.80802 6.84636C7.54982 6.84636 9.31991 6.84636 11.1013 6.84636C11.1013 5.07072 11.1013 3.30635 11.1013 1.57017ZM15.3427 11.0628C15.3427 12.8441 15.3427 14.6084 15.3427 16.3108C17.0902 14.569 18.8603 12.8046 20.6077 11.0628C18.8829 11.0628 17.1128 11.0628 15.3427 11.0628Z" fill="white"/>
<path d="M0.362305 9.20848C0.48672 8.97737 0.678997 8.90409 0.939138 8.90972C1.68563 8.921 2.43777 8.91536 3.18426 8.91536C3.4953 8.91536 3.68758 9.07319 3.69889 9.32686C3.70454 9.58616 3.50661 9.7609 3.18426 9.7609C2.43777 9.7609 1.68563 9.75527 0.939138 9.76654C0.678997 9.77218 0.48672 9.69326 0.362305 9.46778C0.362305 9.37759 0.362305 9.29304 0.362305 9.20848Z" fill="white"/>
<path d="M0.362305 4.77191C0.48672 4.54643 0.673342 4.46188 0.939138 4.47315C1.31804 4.49006 1.70259 4.47315 2.08149 4.47879C2.38122 4.47879 2.57915 4.65354 2.56784 4.91284C2.56219 5.16086 2.36991 5.32433 2.08149 5.32433C1.70259 5.32433 1.31804 5.31306 0.939138 5.32997C0.678997 5.34124 0.48672 5.25669 0.362305 5.03121C0.362305 4.94102 0.362305 4.85647 0.362305 4.77191Z" fill="white"/>
<path d="M4.92586 13.9434C5.89856 13.9434 6.87691 13.9434 7.84961 13.9434C8.10975 13.9434 8.27941 14.0618 8.3303 14.2704C8.38685 14.5015 8.22285 14.7439 7.97402 14.7777C7.90616 14.789 7.83264 14.7833 7.76478 14.7833C5.87028 14.7833 3.98144 14.7833 2.08694 14.7833C2.03604 14.7833 1.98514 14.7833 1.9399 14.7833C1.68541 14.7664 1.5101 14.586 1.51576 14.3493C1.52141 14.1238 1.69673 13.9434 1.94555 13.9434C2.39232 13.9378 2.83342 13.9434 3.28019 13.9434C3.82309 13.9434 4.37165 13.9434 4.92586 13.9434Z" fill="white"/>
<path d="M4.87508 11.2378C5.24832 11.2378 5.62157 11.2378 5.99481 11.2378C6.28888 11.2378 6.46985 11.4013 6.47551 11.6549C6.47551 11.9142 6.30019 12.0777 6.00612 12.0833C5.25398 12.089 4.49618 12.0833 3.74403 12.0833C3.45562 12.0833 3.26334 11.9086 3.25768 11.6662C3.25203 11.4125 3.45562 11.2434 3.75534 11.2378C4.12859 11.2378 4.50183 11.2378 4.87508 11.2378Z" fill="white"/>
<path d="M4.32081 5.31874C4.06633 5.31874 3.81184 5.32438 3.55736 5.31874C3.28591 5.31311 3.1106 5.13836 3.1106 4.89033C3.11625 4.64795 3.28591 4.47884 3.5517 4.47884C4.07198 4.4732 4.59226 4.4732 5.1182 4.47884C5.37834 4.48447 5.55365 4.65922 5.55365 4.89597C5.55365 5.13836 5.384 5.31311 5.12386 5.31874C4.8524 5.32438 4.58661 5.31874 4.32081 5.31874Z" fill="white"/>
<path d="M4.95436 9.34371C4.9487 9.57483 4.76773 9.75521 4.53587 9.75521C4.30401 9.75521 4.10042 9.55228 4.10607 9.32117C4.11173 9.09569 4.304 8.90967 4.53021 8.90967C4.77339 8.9153 4.96001 9.10696 4.95436 9.34371Z" fill="white"/>
</svg>
