<svg width="10" height="10" viewBox="0 0 10 10" fill="none" xmlns="http://www.w3.org/2000/svg">
<g clip-path="url(#clip0_1_22)">
<path d="M0 8.87296C1.1171 8.99619 2.10926 8.66256 3.00833 7.83599C2.06761 7.73079 1.44292 7.15068 1.0926 6.07464C1.40617 6.11972 1.69525 6.12574 1.99902 6.02955C0.766781 5.64182 0.33562 4.29826 0.389515 3.5288C0.66634 3.70013 0.952964 3.81434 1.29593 3.82336C0.78148 3.36349 0.485056 2.77437 0.409113 2.03496C0.352768 1.48492 0.44341 0.961924 0.673689 0.465982C1.78589 2.07404 3.19206 2.95772 4.89466 3.09898C4.88731 2.8465 4.87016 2.60605 4.87506 2.3686C4.89956 1.33764 5.5463 0.351765 6.35963 0.0962794C7.12151 -0.141172 7.79275 0.069228 8.366 0.73349C8.41009 0.784587 8.44684 0.790599 8.50564 0.77557C8.9025 0.664359 9.27976 0.496039 9.63498 0.249571C9.65703 0.234542 9.68153 0.222519 9.72073 0.198474C9.65213 0.493033 9.54434 0.748519 9.39001 0.96493C9.23812 1.17834 9.06174 1.36769 8.8976 1.56307C9.26262 1.50896 9.62518 1.37671 9.97795 1.19938C9.9853 1.20839 9.99265 1.22042 10 1.22943C9.83587 1.46688 9.67908 1.71335 9.5027 1.93878C9.36061 2.11912 9.19157 2.26941 9.04214 2.44073C9.01029 2.4738 8.98579 2.53992 8.98579 2.58801C8.98334 5.18795 8.15042 7.27692 6.42577 8.80082C5.69574 9.44705 4.86036 9.7927 3.96864 9.93698C3.12837 10.0722 2.30034 10.0031 1.48702 9.71455C0.977462 9.53421 0.497305 9.2667 0.0465458 8.92105C0.0318471 8.90902 0.0244978 8.897 0 8.87296Z" fill="white"/>
</g>
<defs>
<clipPath id="clip0_1_22">
<rect width="10" height="10" fill="white"/>
</clipPath>
</defs>
</svg>
